<?xml version="1.0" encoding="utf-8"?>
<!-- Generator: Adobe Illustrator 25.2.1, SVG Export Plug-In . SVG Version: 6.00 Build 0)  -->
<svg version="1.1" id="Capa_1" xmlns="http://www.w3.org/2000/svg" xmlns:xlink="http://www.w3.org/1999/xlink" x="0px" y="0px"
	 viewBox="0 0 1024 1024" style="enable-background:new 0 0 1024 1024;" xml:space="preserve">
<style type="text/css">
	.st0{fill:#282A36;}
	.st1{fill:#F8F8F2;}
	.st2{fill:#E0E0E0;}
</style>
<path class="st0" d="M514.32,1024c-9.05-1.29-16.95-5.1-24.76-8.84c-40.56-19.46-79.87-41.2-118.81-63.63
	c-49.9-28.75-99.2-58.44-147.84-89.23c-33.19-21.01-65.75-42.89-97.59-65.81c-10.6-7.63-20.65-16.01-30.76-24.28
	c-12.19-9.98-18.43-23.87-24.74-37.66c-9.69-21.17-16.35-43.38-22.08-65.81c-4.08-15.96-6.73-32.28-10.54-48.31
	c-3.81-16.04-6.16-32.37-8.02-48.62c-2.07-18.11-4.98-36.31-4.05-54.63c0.77-15.14,3.69-29.92,8.17-44.54
	c6.27-20.46,14.61-40.01,23.74-59.3c8.1-17.12,17.43-33.6,26.99-49.95c2.95-5.04,2.98-9.3-0.68-14.17
	c-18.18-24.19-36.42-48.35-51.83-74.43c-7.12-12.06-9.34-25.65-13.34-38.71c-5.5-18-9.88-36.29-13.38-54.68
	c-2.45-12.88-6.49-25.89-4.04-39.37c1.66-9.12,2.84-18.37,5.25-27.29c3.85-14.29,8.4-28.38,13.35-42.38
	C25.5,55.01,36.69,42.79,52.74,34c20.27-11.1,39.69-23.71,61.32-32.34c4.29-1.71,7.78-2.12,12.19,0.18
	c19.7,10.26,38.24,22.32,56.7,34.51c24.24,16.01,48.42,32.11,72.54,48.3c4.75,3.19,8.77,2.98,13.84,0.24
	c20.68-11.16,42.23-20.51,64.24-28.89c15.42-5.87,31.07-11.19,46.93-15.5c19.95-5.42,40.13-10.49,60.65-13.33
	c18.07-2.5,36.25-4.37,54.55-5.37c16.13-0.88,32.16-0.2,48.19,0.43c14.37,0.57,28.68,2.55,42.99,4.26
	c12.8,1.53,25.52,3.64,37.97,6.39c13.78,3.05,27.58,6.45,41.11,10.78c24.29,7.76,47.92,16.98,70.53,28.67
	c7.02,3.63,13.89,7.58,20.59,11.75c4.51,2.8,8.38,2.79,12.8-0.19c26.14-17.64,52.14-35.52,78.67-52.58
	c16.33-10.5,32.65-21.11,50.11-29.87c3.77-1.89,6.99-1.79,10.15-0.44c27.05,11.56,52.39,26.21,76.71,42.53
	c7.83,5.25,12.75,13.28,16.31,21.86c6.93,16.71,12.35,33.91,16.7,51.47c2.05,8.28,3.23,16.68,4.77,25.02
	c1.92,10.43-0.63,20.75-2.37,30.97c-4.77,28.09-13.14,55.36-20.14,82.93c-2.83,11.15-8.93,21.07-15.24,30.73
	c-13.92,21.34-28.96,41.9-44.3,62.25c-3.02,4-3.16,7.66-0.6,11.47c17.17,25.5,31.77,52.43,44.75,80.16
	c8.73,18.64,15.91,38.08,18.99,58.46c1.87,12.4,0.85,25.19-0.63,37.76c-2.13,18.09-3.93,36.23-6.47,54.26
	c-1.87,13.3-5.03,26.42-7.02,39.7c-2.87,19.15-7.37,38.01-12.61,56.53c-7.15,25.24-14.51,50.85-31.36,72.02
	c-14.07,17.68-32.03,31.39-50.12,44.83c-51.32,38.14-105.64,71.81-160.5,104.69c-34.2,20.5-68.79,40.33-103.77,59.47
	c-34.17,18.69-68.54,37.06-104.5,52.28C523.27,1022.15,518.79,1023.74,514.32,1024z M784.24,168.53
	c-10.06-14.75-20.74-29.14-30.01-44.36c-10.56-17.34-25.48-28.45-44.6-34.71c-0.18-0.06-0.38-0.09-0.56-0.16
	c-59.14-22.17-120.24-37.48-182-50.47c-7.33-1.54-14.64-4.01-22.38-2.72c-33.36,5.58-66.13,13.77-98.74,22.51
	c-36.89,9.88-73.73,20-108.84,35.22c-7.45,3.23-15.18,6.33-20.66,12.56c-8.9,10.13-16.04,21.56-24.03,32.38
	c-2.57,3.56-5.26,7.05-7.71,10.69c-44.84,67-87.18,135.5-126.8,205.62c-22.5,39.81-44.65,79.84-61.86,122.25
	c-6.86,16.9-12.9,33.93-11.23,52.87c2.64,29.91,8.9,59.07,16.77,87.95c9.38,34.43,20.26,68.37,35.93,100.64
	c5.42,11.17,12.18,20.86,24.64,25.41c3.24,1.18,6.13,3.29,9.17,4.99c96.39,53.66,192.23,108.27,289.46,160.47
	c26.94,14.46,53.66,29.36,81.89,41.35c3.81,1.62,7.29,1.98,11.15,0.14c6.46-3.08,13.2-5.62,19.6-8.81
	c44.21-21.99,87.51-45.68,130.65-69.62c78.01-43.28,155.8-86.96,233.91-130.06c8.49-4.69,14.43-10.72,18.71-18.85
	c2.59-4.92,5.14-9.89,7.34-14.99c21.28-49.42,36.11-100.69,45.12-153.61c3.89-22.88,5.25-45.56-4.12-67.83
	c-6.62-15.74-13.04-31.55-20.58-46.89c-31.2-63.49-67.16-124.37-104.25-184.63C822.1,226.44,804.1,196.91,784.24,168.53z"/>
<path class="st1" d="M252.42,138.78c7.98-10.81,15.13-22.25,24.03-32.38c5.47-6.23,13.21-9.33,20.66-12.56
	c35.11-15.22,71.96-25.34,108.84-35.22c32.61-8.74,65.38-16.92,98.74-22.51c7.74-1.3,15.05,1.18,22.38,2.72
	c61.75,12.99,122.86,28.3,182,50.47c0.18,0.07,0.38,0.1,0.56,0.16c19.12,6.26,34.04,17.37,44.6,34.71
	c9.27,15.22,19.95,29.6,30.01,44.36c-1.83,2.2-0.67,4.43,0.16,6.49c9.03,22.17,18.16,44.29,27.22,66.45
	c14.99,36.7,30.16,73.32,44.85,110.14c13.34,33.43,26.27,67.03,39.14,100.64c4.1,10.71,9.03,21.35,10.71,32.68
	c2.16,14.52,5.13,28.89,7.86,43.28c4.41,23.27,7.21,46.69,8.64,70.25c0.95,15.65-0.06,31.35-3.5,46.71
	c-3.21,14.33-8.46,27.7-20.14,37.93c-13.37,11.72-28.03,21.7-42.71,31.64c-32.63,22.08-66.4,42.41-100.29,62.54
	c-31.23,18.55-62.73,36.66-94.52,54.27c-20.81,11.53-41.58,23.1-62.6,34.25c-25.81,13.69-51.49,27.61-78.38,39.21
	c-5.24,2.26-10.22,3.33-15.63,0.7c-5.22-2.54-10.54-4.88-15.85-7.23c-20.76-9.16-40.58-20.13-60.66-30.59
	c-19.21-10-38.23-20.39-57.09-31.04c-33.99-19.19-68-38.37-101.47-58.45c-47.87-28.7-96.11-56.84-140.2-91.16
	c-8.57-6.67-15.33-14.89-19.64-25.19c-6.33-15.14-7.63-31.02-8.9-46.99c-0.86-10.73,0.77-21.38,1.26-32.07
	c0.41-8.92,1.68-17.81,2.93-26.67c1.52-10.74,3.24-21.46,5.18-32.14c2.69-14.8,4.9-29.74,8.71-44.26
	c4.79-18.29,12.4-35.72,19.06-53.43c20.07-53.41,41.99-106.1,63.4-158.99c16.67-41.18,33.84-82.17,50.66-123.29
	C253.07,142.67,255.35,140.56,252.42,138.78z M588.19,725.63c2.35-11.86-2.01-21.35-10.72-29.25c-5.18-4.7-11.12-8.29-17.58-11.02
	c-20.72-8.74-42.28-10.64-64.41-7.35c-15.35,2.29-29.83,6.96-41.98,16.89c-10.52,8.59-15.74,19.25-11.7,32.97
	c-1,0.58-2.99-3.25-3.29,0.93c-1.19,16.52,3.94,29.94,18.28,39.62c20,13.5,42.72,15.81,65.85,15.58c8.56-0.09,17.34-2.11,25.58-4.63
	c15.98-4.87,31.16-11.53,38.73-27.82c3.53-7.59,3.03-15.96,3.17-24.13C590.16,726.35,589.21,725.85,588.19,725.63z M568.86,536.92
	c-2.19-0.01-3.09,0.74-2.69,3.16c0.83,5.06,1.31,10.17,1.95,15.26c2.7,21.6,9.24,42.16,18.61,61.73
	c14.4,30.09,33.99,56.35,60.8,77.04c32.45,25.05,67.9,40.42,110.22,32.6c25.23-4.66,44.73-18.36,59.46-38.86
	c12.76-17.77,18.41-38.13,21.36-59.28c0.66-4.7,2.41-10.14-1.56-14.63c4.01-27.55,1.86-54.73-6.45-81.23
	c-17.06-54.4-48.38-98.29-99.46-126.66c-26.12-14.51-54.3-21.28-84.16-14.71c-37.85,8.33-60.65,33.13-72.76,68.33
	C565.48,484.89,565.3,510.82,568.86,536.92z M455.39,536.92c0.16-0.81,0.33-1.63,0.49-2.44c0.32-0.29,0.37-0.63,0.15-1
	c0.21-2.48,0.41-4.95,0.63-7.43c1.99-22.53,1.02-44.84-6.5-66.39c-12.25-35.08-35-59.9-72.78-68.28
	c-29.84-6.62-57.84,0.41-84.17,14.52c-70.35,37.68-118.93,126.67-105.97,209.21c-2.81,1.05-1.98,3.47-1.93,5.42
	c0.34,12.86,3.01,25.33,7.01,37.51c9.19,28.01,26.07,49.94,53.68,62.28c30.54,13.64,61.21,10.55,91.11-2.32
	c33.92-14.6,60.21-38.21,81.17-68.12c21.25-30.31,33.9-63.71,38.69-100.06C457.5,545.71,459.3,540.78,455.39,536.92z"/>
<path class="st2" d="M252.42,138.78c2.93,1.78,0.65,3.89,0.01,5.45c-16.82,41.12-33.99,82.11-50.66,123.29
	c-21.41,52.89-43.33,105.58-63.4,158.99c-6.66,17.71-14.26,35.15-19.06,53.43c-3.81,14.52-6.02,29.46-8.71,44.26
	c-1.94,10.68-3.66,21.4-5.18,32.14c-1.25,8.86-2.52,17.75-2.93,26.67c-0.5,10.68-2.12,21.34-1.26,32.07
	c1.27,15.96,2.57,31.85,8.9,46.99c4.31,10.3,11.07,18.51,19.64,25.19c44.09,34.32,92.34,62.46,140.2,91.16
	c33.47,20.07,67.48,39.25,101.47,58.45c18.86,10.65,37.88,21.03,57.09,31.04c20.08,10.45,39.9,21.43,60.66,30.59
	c5.31,2.34,10.63,4.69,15.85,7.23c5.41,2.63,10.4,1.56,15.63-0.7c26.89-11.59,52.57-25.51,78.38-39.21
	c21.02-11.15,41.8-22.72,62.6-34.25c31.79-17.62,63.29-35.72,94.52-54.27c33.88-20.13,67.65-40.46,100.29-62.54
	c14.69-9.93,29.34-19.92,42.71-31.64c11.68-10.23,16.93-23.6,20.14-37.93c3.44-15.35,4.45-31.06,3.5-46.71
	c-1.44-23.57-4.23-46.98-8.64-70.25c-2.73-14.39-5.7-28.76-7.86-43.28c-1.68-11.32-6.61-21.96-10.71-32.68
	c-12.87-33.61-25.79-67.21-39.14-100.64c-14.69-36.81-29.86-73.44-44.85-110.14c-9.05-22.16-18.19-44.29-27.22-66.45
	c-0.84-2.05-1.99-4.29-0.16-6.49c19.85,28.37,37.86,57.9,55.98,87.35c37.08,60.26,73.05,121.14,104.25,184.63
	c7.54,15.34,13.96,31.15,20.58,46.89c9.37,22.27,8.01,44.96,4.12,67.83c-9,52.92-23.84,104.19-45.12,153.61
	c-2.2,5.1-4.75,10.07-7.34,14.99c-4.28,8.13-10.22,14.16-18.71,18.85c-78.11,43.1-155.9,86.78-233.91,130.06
	c-43.15,23.94-86.44,47.63-130.65,69.62c-6.41,3.19-13.14,5.73-19.6,8.81c-3.85,1.84-7.34,1.48-11.15-0.14
	c-28.23-11.99-54.96-26.89-81.89-41.35c-97.22-52.2-193.07-106.81-289.46-160.47c-3.04-1.69-5.93-3.81-9.17-4.99
	c-12.47-4.56-19.22-14.25-24.64-25.41c-15.67-32.27-26.55-66.21-35.93-100.64c-7.87-28.88-14.13-58.04-16.77-87.95
	c-1.67-18.94,4.37-35.98,11.23-52.87c17.21-42.41,39.37-82.44,61.86-122.25C157.53,285,199.87,216.5,244.71,149.5
	C247.16,145.83,249.85,142.34,252.42,138.78z"/>
<path class="st0" d="M187.24,615.1c-12.96-82.54,35.62-171.53,105.97-209.21c26.33-14.1,54.33-21.13,84.17-14.52
	c37.78,8.38,60.53,33.2,72.78,68.28c7.52,21.55,8.5,43.86,6.5,66.39c-0.22,2.48-0.42,4.95-0.63,7.43c-0.12,0.09-0.34,0.18-0.33,0.26
	c0.02,0.25,0.11,0.49,0.18,0.74c-0.16,0.81-0.33,1.63-0.49,2.44c-6.65,36.6-20.89,70.02-44.01,99.46
	c-25.49,32.46-56.88,56.9-98.17,66.84c-46.6,11.21-89.44-7.29-112.15-48.09C194.07,642.59,190.25,628.98,187.24,615.1z
	 M342.76,549.87c21.73-0.94,41.73-7.01,57.63-22.87c6.73-6.71,11.55-14.66,10.63-24.54c-1.1-11.81-9.01-18.77-19.26-23.23
	c-20.47-8.91-40.94-6.79-61.08,1.2c-13.85,5.49-25.57,13.72-32.28,27.43c-5.09,10.4-3.32,20.3,4.97,28.35
	C314.21,546.72,328.02,549.16,342.76,549.87z"/>
<path class="st0" d="M568.86,536.92c-3.56-26.1-3.38-52.03,5.3-77.24c12.11-35.2,34.92-59.99,72.76-68.33
	c29.87-6.58,58.04,0.2,84.16,14.71c51.09,28.37,82.41,72.26,99.46,126.66c8.31,26.5,10.46,53.68,6.45,81.23
	c-0.52,2.23-1.06,4.46-1.56,6.7c-6.3,28.29-19.08,52.78-44.04,69.35c-30.05,19.96-62.49,20.37-95.44,8.63
	c-40.17-14.31-69.73-41.66-92.91-76.26C585.58,596.29,574.57,567.62,568.86,536.92z M692.32,549.87
	c11.48,0.07,22.45-1.96,32.42-7.78c16.49-9.63,19.82-25.74,8.51-41.02c-6.57-8.88-15.3-15.19-25.43-19.54
	c-21.3-9.13-43.07-11.95-64.86-2.19c-21.15,9.47-25.08,28.47-10.04,45.85c2.26,2.61,4.78,5.07,7.5,7.2
	C655.6,544.29,673.17,549.39,692.32,549.87z"/>
<path class="st0" d="M441.8,727.88c-4.04-13.73,1.18-24.38,11.7-32.97c12.15-9.93,26.63-14.6,41.98-16.89
	c22.12-3.29,43.68-1.39,64.41,7.35c6.46,2.72,12.4,6.31,17.58,11.02c8.72,7.91,13.07,17.39,10.72,29.25
	c-4.92,13.11-15.01,21.17-27.5,26.44c-28.56,12.04-57.64,12.35-86.77,2.24C460.06,749.49,448.28,741.67,441.8,727.88z"/>
<path class="st2" d="M568.86,536.92c5.72,30.69,16.72,59.36,34.19,85.45c23.18,34.6,52.74,61.95,92.91,76.26
	c32.96,11.74,65.4,11.33,95.44-8.63c24.95-16.58,37.74-41.06,44.04-69.35c0.5-2.24,1.04-4.47,1.56-6.7
	c3.96,4.49,2.22,9.93,1.56,14.63c-2.95,21.15-8.6,41.52-21.36,59.28c-14.72,20.5-34.23,34.2-59.46,38.86
	c-42.32,7.82-77.77-7.56-110.22-32.6c-26.8-20.69-46.39-46.95-60.8-77.04c-9.37-19.58-15.91-40.13-18.61-61.73
	c-0.64-5.09-1.12-10.2-1.95-15.26C565.77,537.66,566.67,536.91,568.86,536.92z"/>
<path class="st2" d="M187.24,615.1c3.02,13.87,6.83,27.49,13.81,40.03c22.71,40.8,65.55,59.3,112.15,48.09
	c41.3-9.94,72.69-34.38,98.17-66.84c23.12-29.44,37.36-62.86,44.01-99.46c3.91,3.86,2.11,8.79,1.57,12.89
	c-4.79,36.35-17.44,69.75-38.69,100.06c-20.97,29.9-47.25,53.52-81.17,68.12c-29.9,12.86-60.57,15.96-91.11,2.32
	c-27.61-12.34-44.49-34.27-53.68-62.28c-4-12.18-6.67-24.65-7.01-37.51C185.25,618.57,184.43,616.15,187.24,615.1z"/>
<path class="st2" d="M441.8,727.88c6.48,13.8,18.25,21.61,32.12,26.43c29.12,10.11,58.21,9.81,86.77-2.24
	c12.49-5.27,22.58-13.33,27.5-26.44c1.02,0.22,1.97,0.71,1.95,1.8c-0.14,8.16,0.36,16.53-3.17,24.13
	c-7.57,16.29-22.75,22.95-38.73,27.82c-8.25,2.51-17.02,4.54-25.58,4.63c-23.13,0.24-45.85-2.08-65.85-15.58
	c-14.35-9.68-19.47-23.1-18.28-39.62C438.81,724.63,440.81,728.45,441.8,727.88z"/>
<path class="st2" d="M455.88,534.48c-0.07-0.25-0.17-0.49-0.18-0.74c0-0.08,0.22-0.17,0.33-0.26
	C456.25,533.85,456.2,534.19,455.88,534.48z"/>
<path class="st1" d="M342.76,549.87c-14.74-0.71-28.55-3.15-39.39-13.67c-8.3-8.05-10.06-17.95-4.97-28.35
	c6.7-13.71,18.43-21.94,32.28-27.43c20.14-7.99,40.61-10.11,61.08-1.2c10.25,4.46,18.16,11.42,19.26,23.23
	c0.92,9.88-3.9,17.83-10.63,24.54C384.49,542.87,364.49,548.93,342.76,549.87z"/>
<path class="st1" d="M692.32,549.87c-19.15-0.48-36.72-5.58-51.9-17.48c-2.72-2.13-5.24-4.59-7.5-7.2
	c-15.04-17.38-11.11-36.38,10.04-45.85c21.79-9.75,43.56-6.94,64.86,2.19c10.14,4.35,18.86,10.65,25.43,19.54
	c11.31,15.29,7.97,31.4-8.51,41.02C714.77,547.91,703.8,549.94,692.32,549.87z"/>
</svg>
